<svg xmlns="http://www.w3.org/2000/svg" xmlns:xlink="http://www.w3.org/1999/xlink" xmlns:serif="http://www.serif.com/" width="100%" height="100%" viewBox="0 0 200 40" xml:space="preserve" style="fill-rule:evenodd;clip-rule:evenodd;stroke-linejoin:round;stroke-miterlimit:2;">
    <path d="M32,4L20.003,4L0,24.001L0,36L32,4Z" style="fill:rgb(237,185,50);"></path>
    <g transform="matrix(0.375,0,0,0.375,0,2.5)">
        <path d="M32,4L0,4L0,36L32,4Z" style="fill:rgb(237,185,50);"></path>
    </g>
    <g transform="matrix(0.5,0,0,0.5,16,18)">
        <path d="M32,4L0,4L0,36L32,4Z" style="fill:rgb(237,185,50);"></path>
    </g>
    <g transform="matrix(36.0769,0,0,36.0769,45.3428,31.8526)">
        <path d="M0.319,-0.34L0.606,-0.007L0.606,0L0.467,0L0.191,-0.327L0.191,0L0.077,0L0.077,-0.648L0.191,-0.648L0.191,-0.343L0.464,-0.648L0.593,-0.648L0.593,-0.641L0.319,-0.34Z" style="fill-rule:nonzero;"></path>
    </g>
    <g transform="matrix(36.0769,0,0,36.0769,74.998,31.8526)">
        <path d="M0.394,-0.648L0.633,-0.007L0.633,0L0.513,0L0.452,-0.172L0.192,-0.172L0.132,0L0.015,0L0.015,-0.007L0.253,-0.648L0.394,-0.648ZM0.224,-0.264L0.419,-0.264L0.321,-0.542L0.224,-0.264Z" style="fill-rule:nonzero;"></path>
    </g>
    <g transform="matrix(36.0769,0,0,36.0769,102.849,31.8526)">
        <path d="M0.6,-0.648L0.6,-0.641L0.362,-0.26L0.362,0L0.248,0L0.248,-0.261L0.015,-0.641L0.015,-0.648L0.142,-0.648L0.307,-0.364L0.479,-0.648L0.6,-0.648Z" style="fill-rule:nonzero;"></path>
    </g>
    <g transform="matrix(36.0769,0,0,36.0769,132.505,31.8526)">
        <path d="M0.336,0.013C0.274,0.013 0.223,0.001 0.182,-0.023C0.141,-0.047 0.11,-0.08 0.091,-0.121C0.072,-0.162 0.062,-0.208 0.062,-0.261L0.062,-0.648L0.176,-0.648L0.176,-0.28C0.176,-0.218 0.189,-0.17 0.215,-0.136C0.241,-0.101 0.284,-0.084 0.343,-0.084C0.45,-0.084 0.504,-0.147 0.504,-0.272L0.504,-0.648L0.618,-0.648L0.618,-0.264C0.618,-0.199 0.606,-0.147 0.581,-0.106C0.556,-0.065 0.523,-0.035 0.481,-0.016C0.439,0.003 0.391,0.013 0.336,0.013Z" style="fill-rule:nonzero;"></path>
    </g>
    <g transform="matrix(36.0769,0,0,36.0769,164.505,31.8526)">
        <path d="M0.336,0.013C0.274,0.013 0.223,0.001 0.182,-0.023C0.141,-0.047 0.11,-0.08 0.091,-0.121C0.072,-0.162 0.062,-0.208 0.062,-0.261L0.062,-0.648L0.176,-0.648L0.176,-0.28C0.176,-0.218 0.189,-0.17 0.215,-0.136C0.241,-0.101 0.284,-0.084 0.343,-0.084C0.45,-0.084 0.504,-0.147 0.504,-0.272L0.504,-0.648L0.618,-0.648L0.618,-0.264C0.618,-0.199 0.606,-0.147 0.581,-0.106C0.556,-0.065 0.523,-0.035 0.481,-0.016C0.439,0.003 0.391,0.013 0.336,0.013Z" style="fill-rule:nonzero;"></path>
    </g>
</svg>